<svg width="200" height="89" viewBox="0 0 200 89" fill="none" xmlns="http://www.w3.org/2000/svg">
<path d="M1.52588e-05 89L8.35239e-06 10C7.86957e-06 4.47715 4.47715 1.83436e-06 10 1.35154e-06L200 -1.52588e-05C200 -1.52588e-05 199.366 21.3732 162.395 22.4429C125.423 23.5125 108.681 60.3962 68.194 67.6268C27.707 74.8575 28.9749 88.5475 1.52588e-05 89Z" fill="#FFF3F3"/>
<path d="M43.1687 81.8713C43.2173 82.3859 42.8393 82.8417 42.3255 82.8898L35.2181 83.5584C35.1147 83.5682 35.0117 83.5731 34.9094 83.5731C33.2468 83.5733 31.822 82.3034 31.6631 80.6151L29.0146 52.4558C28.9257 51.519 29.2459 50.5896 29.8937 49.906L34.7655 44.7617C35.1205 44.3865 35.7123 44.3701 36.0872 44.7257C36.4622 45.0807 36.4786 45.6725 36.1232 46.0474L31.2514 51.1917C30.9756 51.4836 30.8385 51.88 30.8763 52.2798L33.5248 80.4398C33.5965 81.2045 34.2633 81.7636 35.0425 81.6968L42.15 81.0282C42.6639 80.973 43.12 81.3576 43.1687 81.8713ZM60.9246 66.0335C60.7968 65.9803 60.6623 65.9538 60.5276 65.9538C60.3929 65.9538 60.259 65.9803 60.1319 66.0329C59.8756 66.1385 59.6764 66.3377 59.5707 66.593C59.4647 66.8487 59.4641 67.1306 59.5701 67.3867C59.6754 67.642 59.8744 67.8416 60.1301 67.9474C60.3853 68.0535 60.6677 68.0541 60.9229 67.9479C61.1791 67.8424 61.3783 67.6432 61.4843 67.3879C61.5903 67.1322 61.5908 66.8505 61.4849 66.5946C61.3789 66.3389 61.1803 66.1395 60.9246 66.0335ZM48.1562 60.7383C48.0278 60.6849 47.8933 60.6585 47.7586 60.6585C47.6239 60.6585 47.49 60.6847 47.3629 60.7377C46.8351 60.9559 46.5829 61.5632 46.8009 62.0915C46.9062 62.3468 47.1052 62.5462 47.3609 62.6525C47.6172 62.7585 47.898 62.7585 48.1542 62.6531C48.6821 62.4345 48.9342 61.8275 48.7163 61.2993C48.6103 61.0436 48.4119 60.8446 48.1562 60.7383ZM73.7331 74.6605C73.3781 75.5159 72.7115 76.1814 71.856 76.535L50.2065 85.4828C49.7792 85.6593 49.3303 85.7477 48.8822 85.7477C48.4342 85.7477 47.9818 85.6587 47.5531 85.481C46.6982 85.126 46.0322 84.4592 45.6786 83.6034L33.9357 55.1911C33.5539 54.2678 33.5899 53.2242 34.0336 52.3283L38.1682 43.9842C36.0962 42.8334 32.1376 40.3172 31.51 37.5938C31.3042 36.7001 31.4772 35.8514 32.0105 35.1402C32.6079 34.3442 33.4876 33.9497 34.5792 34.0054C36.5175 34.102 39.0161 35.688 41.3438 37.7684C42.2375 36.649 43.762 36.1632 45.1627 36.6393L59.9018 41.6372C60.848 41.9574 61.6102 42.6713 61.9926 43.5954L73.7356 72.0077C74.0889 72.8633 74.0879 73.8058 73.7331 74.6605ZM40.4119 39.4567C38.2347 37.4533 35.9709 35.9472 34.486 35.8731C33.8985 35.8446 33.6538 36.0659 33.507 36.2626C33.3037 36.5337 33.2501 36.8148 33.3322 37.1739C33.6546 38.5729 35.8914 40.5805 38.9993 42.3071L40.4119 39.4567ZM44.0138 47.5357C44.482 48.6683 45.5802 49.3535 46.7358 49.3535C47.1095 49.3535 47.4896 49.2818 47.8553 49.1305C48.5816 48.8304 49.1473 48.2652 49.4486 47.54C49.75 46.8141 49.7506 46.0148 49.4503 45.2887C49.1503 44.5623 48.5853 43.9967 47.8594 43.6955C47.3996 43.5043 46.9111 43.4482 46.4296 43.4986C46.6638 43.8394 46.8857 44.1746 47.0794 44.4952C47.3467 44.9372 47.2055 45.5122 46.7635 45.7796C46.612 45.8709 46.4451 45.9145 46.2801 45.9145C45.9636 45.9145 45.6547 45.7538 45.4795 45.4633C45.2491 45.0823 44.9836 44.689 44.7033 44.2919C43.8542 45.1063 43.5379 46.3848 44.0138 47.5357ZM49.3452 65.5336C51.4615 64.6588 52.4714 62.2252 51.5972 60.109C51.1734 59.0835 50.3758 58.2847 49.3506 57.8591C48.3259 57.4335 47.1965 57.4329 46.172 57.857C44.0556 58.7322 43.0457 61.1656 43.9199 63.282C44.3438 64.3073 45.1412 65.1061 46.1665 65.5313C46.6797 65.7444 47.2192 65.8509 47.7586 65.8509C48.2979 65.8509 48.8338 65.7454 49.3452 65.5336ZM51.9937 73.587L59.173 56.2928C59.503 55.4978 59.1261 54.5856 58.3316 54.2556C57.5358 53.9253 56.6238 54.3026 56.2944 55.0976L49.1151 72.3918C48.7851 73.1869 49.162 74.099 49.9565 74.429C50.1519 74.51 50.3547 74.5485 50.5537 74.5485C51.165 74.5485 51.7452 74.1868 51.9937 73.587ZM64.3658 65.4042C63.942 64.3787 63.1444 63.5799 62.1198 63.1543C61.0945 62.7288 59.9663 62.7288 58.9412 63.152C57.9158 63.5758 57.1171 64.3734 56.6915 65.3982C56.2659 66.4227 56.2653 67.5517 56.6891 68.5772C57.113 69.6026 57.9104 70.4013 58.9351 70.8265C59.4483 71.0396 59.9878 71.1462 60.5272 71.1462C61.0665 71.1462 61.6024 71.0402 62.1138 70.8289C63.1391 70.4051 63.9379 69.6077 64.3635 68.5829C64.7891 67.5581 64.7894 66.4294 64.3658 65.4042Z" fill="url(#paint0_linear_1201_23597)"/>
<defs>
<linearGradient id="paint0_linear_1201_23597" x1="28.9636" y1="78.9744" x2="63.3548" y2="44.5832" gradientUnits="userSpaceOnUse">
<stop offset="0.05" stop-color="#FFB419"/>
<stop offset="0.45" stop-color="#FF7343"/>
<stop offset="1" stop-color="#FF1482"/>
</linearGradient>
</defs>
</svg>
